<mxfile host="app.diagrams.net" agent="Mozilla/5.0 (Windows NT 10.0; Win64; x64) AppleWebKit/537.36 (KHTML, like Gecko) Chrome/131.0.0.0 Safari/537.36 Edg/131.0.0.0" scale="1" border="0" version="24.9.0">
  <diagram name="Seite-1" id="QCtsDUeNQ_YjTtzEqtom">
    <mxGraphModel dx="5650" dy="2922" grid="1" gridSize="10" guides="1" tooltips="1" connect="1" arrows="1" fold="1" page="1" pageScale="1" pageWidth="827" pageHeight="1169" math="0" shadow="0">
      <root>
        <mxCell id="0" />
        <mxCell id="1" parent="0" />
        <mxCell id="Xty3VMYmcu-zJbbGr5Q_-27" value="&lt;font style=&quot;font-size: 30px;&quot;&gt;DataClumpRefactoringContext&lt;/font&gt;" style="swimlane;fontStyle=1;align=center;verticalAlign=top;childLayout=stackLayout;horizontal=1;startSize=60;horizontalStack=0;resizeParent=1;resizeParentMax=0;resizeLast=0;collapsible=1;marginBottom=0;whiteSpace=wrap;html=1;fontFamily=Helvetica;fontSize=19;fontColor=default;labelBackgroundColor=default;" parent="1" vertex="1">
          <mxGeometry x="-1700" y="-520" width="460" height="270" as="geometry" />
        </mxCell>
        <mxCell id="Xty3VMYmcu-zJbbGr5Q_-28" value="&lt;font style=&quot;font-size: 30px;&quot;&gt;- previousContext: DataClumpRefactoringContext&lt;/font&gt;" style="text;strokeColor=none;fillColor=none;align=left;verticalAlign=top;spacingLeft=4;spacingRight=4;overflow=hidden;rotatable=0;points=[[0,0.5],[1,0.5]];portConstraint=eastwest;whiteSpace=wrap;html=1;fontFamily=Helvetica;fontSize=19;fontColor=default;labelBackgroundColor=default;" parent="Xty3VMYmcu-zJbbGr5Q_-27" vertex="1">
          <mxGeometry y="60" width="460" height="100" as="geometry" />
        </mxCell>
        <mxCell id="Xty3VMYmcu-zJbbGr5Q_-29" value="" style="line;strokeWidth=1;fillColor=none;align=left;verticalAlign=middle;spacingTop=-1;spacingLeft=3;spacingRight=3;rotatable=0;labelPosition=right;points=[];portConstraint=eastwest;strokeColor=inherit;fontFamily=Helvetica;fontSize=19;fontColor=default;labelBackgroundColor=default;" parent="Xty3VMYmcu-zJbbGr5Q_-27" vertex="1">
          <mxGeometry y="160" width="460" height="8" as="geometry" />
        </mxCell>
        <mxCell id="Xty3VMYmcu-zJbbGr5Q_-31" style="edgeStyle=orthogonalEdgeStyle;shape=connector;rounded=0;orthogonalLoop=1;jettySize=auto;html=1;exitX=1;exitY=0.5;exitDx=0;exitDy=0;entryX=1;entryY=0.25;entryDx=0;entryDy=0;strokeColor=default;align=center;verticalAlign=middle;fontFamily=Helvetica;fontSize=19;fontColor=default;labelBackgroundColor=default;endArrow=none;endFill=0;" parent="Xty3VMYmcu-zJbbGr5Q_-27" source="Xty3VMYmcu-zJbbGr5Q_-30" target="Xty3VMYmcu-zJbbGr5Q_-27" edge="1">
          <mxGeometry relative="1" as="geometry" />
        </mxCell>
        <mxCell id="Xty3VMYmcu-zJbbGr5Q_-32" value="previous context" style="edgeLabel;html=1;align=center;verticalAlign=middle;resizable=0;points=[];fontFamily=Helvetica;fontSize=30;fontColor=default;labelBackgroundColor=default;" parent="Xty3VMYmcu-zJbbGr5Q_-31" vertex="1" connectable="0">
          <mxGeometry x="0.0939" y="1" relative="1" as="geometry">
            <mxPoint x="131" as="offset" />
          </mxGeometry>
        </mxCell>
        <mxCell id="Xty3VMYmcu-zJbbGr5Q_-30" value="&lt;font style=&quot;font-size: 30px;&quot;&gt;+ getByType(type): DataClumpRefactoringContext&lt;/font&gt;" style="text;strokeColor=none;fillColor=none;align=left;verticalAlign=top;spacingLeft=4;spacingRight=4;overflow=hidden;rotatable=0;points=[[0,0.5],[1,0.5]];portConstraint=eastwest;whiteSpace=wrap;html=1;fontFamily=Helvetica;fontSize=19;fontColor=default;labelBackgroundColor=default;" parent="Xty3VMYmcu-zJbbGr5Q_-27" vertex="1">
          <mxGeometry y="168" width="460" height="102" as="geometry" />
        </mxCell>
        <mxCell id="Xty3VMYmcu-zJbbGr5Q_-75" style="edgeStyle=orthogonalEdgeStyle;shape=connector;rounded=0;orthogonalLoop=1;jettySize=auto;html=1;entryX=0.5;entryY=0;entryDx=0;entryDy=0;strokeColor=default;align=center;verticalAlign=middle;fontFamily=Helvetica;fontSize=19;fontColor=default;labelBackgroundColor=default;endArrow=classic;endFill=1;exitX=0;exitY=0.5;exitDx=0;exitDy=0;endSize=25;" parent="1" target="Xty3VMYmcu-zJbbGr5Q_-27" edge="1" source="Xty3VMYmcu-zJbbGr5Q_-143">
          <mxGeometry relative="1" as="geometry">
            <mxPoint x="-800" y="-783" as="sourcePoint" />
          </mxGeometry>
        </mxCell>
        <mxCell id="Xty3VMYmcu-zJbbGr5Q_-76" value="&lt;font style=&quot;font-size: 30px;&quot;&gt;create and update&lt;/font&gt;" style="edgeLabel;html=1;align=center;verticalAlign=middle;resizable=0;points=[];fontFamily=Helvetica;fontSize=19;fontColor=default;labelBackgroundColor=default;" parent="Xty3VMYmcu-zJbbGr5Q_-75" vertex="1" connectable="0">
          <mxGeometry x="0.196" y="1" relative="1" as="geometry">
            <mxPoint x="84" y="25" as="offset" />
          </mxGeometry>
        </mxCell>
        <mxCell id="Xty3VMYmcu-zJbbGr5Q_-129" value="&lt;font style=&quot;font-size: 30px;&quot;&gt;&lt;i style=&quot;&quot;&gt;AbstractLanguageModel&lt;/i&gt;&lt;/font&gt;" style="swimlane;fontStyle=1;align=center;verticalAlign=top;childLayout=stackLayout;horizontal=1;startSize=50;horizontalStack=0;resizeParent=1;resizeParentMax=0;resizeLast=0;collapsible=1;marginBottom=0;whiteSpace=wrap;html=1;fontFamily=Helvetica;fontSize=11;fontColor=default;labelBackgroundColor=default;" parent="1" vertex="1">
          <mxGeometry x="-750" y="-190" width="500" height="190" as="geometry" />
        </mxCell>
        <mxCell id="Xty3VMYmcu-zJbbGr5Q_-131" value="" style="line;strokeWidth=1;fillColor=none;align=left;verticalAlign=middle;spacingTop=-1;spacingLeft=3;spacingRight=3;rotatable=0;labelPosition=right;points=[];portConstraint=eastwest;strokeColor=inherit;fontFamily=Helvetica;fontSize=11;fontColor=default;labelBackgroundColor=default;" parent="Xty3VMYmcu-zJbbGr5Q_-129" vertex="1">
          <mxGeometry y="50" width="500" height="8" as="geometry" />
        </mxCell>
        <mxCell id="Xty3VMYmcu-zJbbGr5Q_-132" value="&lt;font style=&quot;font-size: 30px;&quot;&gt;+ &lt;i&gt;prepareMessage&lt;/i&gt;(string,string)&lt;/font&gt;&lt;div style=&quot;&quot;&gt;&lt;font style=&quot;font-size: 30px;&quot;&gt;+ &lt;i&gt;sendMessages &lt;/i&gt;(boolean)&lt;/font&gt;&lt;/div&gt;&lt;div style=&quot;&quot;&gt;&lt;font style=&quot;font-size: 30px;&quot;&gt;+ &lt;i&gt;clear&lt;/i&gt;()&lt;/font&gt;&lt;/div&gt;" style="text;strokeColor=none;fillColor=none;align=left;verticalAlign=top;spacingLeft=4;spacingRight=4;overflow=hidden;rotatable=0;points=[[0,0.5],[1,0.5]];portConstraint=eastwest;whiteSpace=wrap;html=1;fontFamily=Helvetica;fontSize=11;fontColor=default;labelBackgroundColor=default;" parent="Xty3VMYmcu-zJbbGr5Q_-129" vertex="1">
          <mxGeometry y="58" width="500" height="132" as="geometry" />
        </mxCell>
        <mxCell id="Xty3VMYmcu-zJbbGr5Q_-133" value="&lt;font style=&quot;font-size: 30px;&quot;&gt;&lt;span style=&quot;&quot;&gt;LargeLanguageModelHandler&lt;/span&gt;&lt;/font&gt;" style="swimlane;fontStyle=3;align=center;verticalAlign=top;childLayout=stackLayout;horizontal=1;startSize=50;horizontalStack=0;resizeParent=1;resizeParentMax=0;resizeLast=0;collapsible=1;marginBottom=0;whiteSpace=wrap;html=1;fontFamily=Helvetica;fontSize=11;fontColor=default;labelBackgroundColor=default;" parent="1" vertex="1">
          <mxGeometry x="-360" y="-560" width="650" height="190" as="geometry" />
        </mxCell>
        <mxCell id="Xty3VMYmcu-zJbbGr5Q_-134" value="" style="line;strokeWidth=1;fillColor=none;align=left;verticalAlign=middle;spacingTop=-1;spacingLeft=3;spacingRight=3;rotatable=0;labelPosition=right;points=[];portConstraint=eastwest;strokeColor=inherit;fontFamily=Helvetica;fontSize=11;fontColor=default;labelBackgroundColor=default;" parent="Xty3VMYmcu-zJbbGr5Q_-133" vertex="1">
          <mxGeometry y="50" width="650" height="8" as="geometry" />
        </mxCell>
        <mxCell id="Xty3VMYmcu-zJbbGr5Q_-135" value="&lt;font style=&quot;font-size: 30px;&quot;&gt;+ &lt;i&gt;handle&lt;/i&gt;(DataClumpRefactoringContext, &lt;span style=&quot;white-space: pre;&quot;&gt;&#x9;&lt;/span&gt;&amp;nbsp; &amp;nbsp; &amp;nbsp; &amp;nbsp; &amp;nbsp; &amp;nbsp; &amp;nbsp; &lt;span style=&quot;white-space: pre;&quot;&gt;&#x9;&lt;/span&gt;&lt;span style=&quot;white-space: pre;&quot;&gt;&#x9;&lt;/span&gt;AbstractLanguageModel,&lt;/font&gt;&lt;div&gt;&lt;font style=&quot;font-size: 30px;&quot;&gt;&amp;nbsp;&lt;span style=&quot;white-space: pre;&quot;&gt;&#x9;&lt;/span&gt;&lt;span style=&quot;white-space: pre;&quot;&gt;&#x9;&lt;span style=&quot;white-space: pre;&quot;&gt;&#x9;&lt;/span&gt;&lt;/span&gt;LanguageModelResolver)&lt;/font&gt;&lt;/div&gt;" style="text;strokeColor=none;fillColor=none;align=left;verticalAlign=top;spacingLeft=4;spacingRight=4;overflow=hidden;rotatable=0;points=[[0,0.5],[1,0.5]];portConstraint=eastwest;whiteSpace=wrap;html=1;fontFamily=Helvetica;fontSize=11;fontColor=default;labelBackgroundColor=default;" parent="Xty3VMYmcu-zJbbGr5Q_-133" vertex="1">
          <mxGeometry y="58" width="650" height="132" as="geometry" />
        </mxCell>
        <mxCell id="Xty3VMYmcu-zJbbGr5Q_-136" value="&lt;font style=&quot;font-size: 30px;&quot;&gt;&lt;span style=&quot;font-style: normal;&quot;&gt;AllFilesHandler&lt;/span&gt;&lt;/font&gt;" style="swimlane;fontStyle=3;align=center;verticalAlign=top;childLayout=stackLayout;horizontal=1;startSize=50;horizontalStack=0;resizeParent=1;resizeParentMax=0;resizeLast=0;collapsible=1;marginBottom=0;whiteSpace=wrap;html=1;fontFamily=Helvetica;fontSize=11;fontColor=default;labelBackgroundColor=default;" parent="1" vertex="1">
          <mxGeometry x="-375" y="-265" width="650" height="58" as="geometry" />
        </mxCell>
        <mxCell id="Xty3VMYmcu-zJbbGr5Q_-137" value="" style="line;strokeWidth=1;fillColor=none;align=left;verticalAlign=middle;spacingTop=-1;spacingLeft=3;spacingRight=3;rotatable=0;labelPosition=right;points=[];portConstraint=eastwest;strokeColor=inherit;fontFamily=Helvetica;fontSize=11;fontColor=default;labelBackgroundColor=default;" parent="Xty3VMYmcu-zJbbGr5Q_-136" vertex="1">
          <mxGeometry y="50" width="650" height="8" as="geometry" />
        </mxCell>
        <mxCell id="Xty3VMYmcu-zJbbGr5Q_-140" style="edgeStyle=orthogonalEdgeStyle;shape=connector;rounded=0;orthogonalLoop=1;jettySize=auto;html=1;exitX=0.5;exitY=0;exitDx=0;exitDy=0;entryX=0.476;entryY=0.994;entryDx=0;entryDy=0;entryPerimeter=0;strokeColor=default;align=center;verticalAlign=middle;fontFamily=Helvetica;fontSize=11;fontColor=default;labelBackgroundColor=default;endArrow=block;endFill=0;endSize=30;" parent="1" source="Xty3VMYmcu-zJbbGr5Q_-136" target="Xty3VMYmcu-zJbbGr5Q_-135" edge="1">
          <mxGeometry relative="1" as="geometry" />
        </mxCell>
        <mxCell id="Xty3VMYmcu-zJbbGr5Q_-141" value="&lt;font style=&quot;font-size: 30px;&quot;&gt;&lt;i style=&quot;&quot;&gt;AbstractStepHandler&lt;/i&gt;&lt;/font&gt;" style="swimlane;fontStyle=1;align=center;verticalAlign=top;childLayout=stackLayout;horizontal=1;startSize=50;horizontalStack=0;resizeParent=1;resizeParentMax=0;resizeLast=0;collapsible=1;marginBottom=0;whiteSpace=wrap;html=1;fontFamily=Helvetica;fontSize=11;fontColor=default;labelBackgroundColor=default;" parent="1" vertex="1">
          <mxGeometry x="-790" y="-970" width="580" height="150" as="geometry" />
        </mxCell>
        <mxCell id="Xty3VMYmcu-zJbbGr5Q_-142" value="" style="line;strokeWidth=1;fillColor=none;align=left;verticalAlign=middle;spacingTop=-1;spacingLeft=3;spacingRight=3;rotatable=0;labelPosition=right;points=[];portConstraint=eastwest;strokeColor=inherit;fontFamily=Helvetica;fontSize=11;fontColor=default;labelBackgroundColor=default;" parent="Xty3VMYmcu-zJbbGr5Q_-141" vertex="1">
          <mxGeometry y="50" width="580" height="8" as="geometry" />
        </mxCell>
        <mxCell id="Xty3VMYmcu-zJbbGr5Q_-143" value="&lt;span style=&quot;font-size: 30px;&quot;&gt;+ &lt;i&gt;handle&lt;/i&gt;(DataClumpRefactoringContext, &lt;span style=&quot;white-space: pre;&quot;&gt;&#x9;&lt;/span&gt;&lt;span style=&quot;white-space: pre;&quot;&gt;&#x9;&lt;/span&gt;PipeLineStepType)&lt;/span&gt;" style="text;strokeColor=none;fillColor=none;align=left;verticalAlign=top;spacingLeft=4;spacingRight=4;overflow=hidden;rotatable=0;points=[[0,0.5],[1,0.5]];portConstraint=eastwest;whiteSpace=wrap;html=1;fontFamily=Helvetica;fontSize=11;fontColor=default;labelBackgroundColor=default;" parent="Xty3VMYmcu-zJbbGr5Q_-141" vertex="1">
          <mxGeometry y="58" width="580" height="92" as="geometry" />
        </mxCell>
        <mxCell id="9zleQhWhxqsWHkxX2myg-1" value="&lt;font style=&quot;font-size: 30px;&quot;&gt;&lt;span style=&quot;font-style: normal;&quot;&gt;SimpleCodeObtainingHandler&lt;/span&gt;&lt;/font&gt;" style="swimlane;fontStyle=3;align=center;verticalAlign=top;childLayout=stackLayout;horizontal=1;startSize=50;horizontalStack=0;resizeParent=1;resizeParentMax=0;resizeLast=0;collapsible=1;marginBottom=0;whiteSpace=wrap;html=1;fontFamily=Helvetica;fontSize=11;fontColor=default;labelBackgroundColor=default;" vertex="1" parent="1">
          <mxGeometry x="-1230" y="-690" width="650" height="58" as="geometry" />
        </mxCell>
        <mxCell id="9zleQhWhxqsWHkxX2myg-2" value="" style="line;strokeWidth=1;fillColor=none;align=left;verticalAlign=middle;spacingTop=-1;spacingLeft=3;spacingRight=3;rotatable=0;labelPosition=right;points=[];portConstraint=eastwest;strokeColor=inherit;fontFamily=Helvetica;fontSize=11;fontColor=default;labelBackgroundColor=default;" vertex="1" parent="9zleQhWhxqsWHkxX2myg-1">
          <mxGeometry y="50" width="650" height="8" as="geometry" />
        </mxCell>
        <mxCell id="9zleQhWhxqsWHkxX2myg-3" value="&lt;font style=&quot;font-size: 30px;&quot;&gt;&lt;span style=&quot;font-style: normal;&quot;&gt;DataClumpDoctorStepHandler&lt;/span&gt;&lt;/font&gt;" style="swimlane;fontStyle=3;align=center;verticalAlign=top;childLayout=stackLayout;horizontal=1;startSize=50;horizontalStack=0;resizeParent=1;resizeParentMax=0;resizeLast=0;collapsible=1;marginBottom=0;whiteSpace=wrap;html=1;fontFamily=Helvetica;fontSize=11;fontColor=default;labelBackgroundColor=default;" vertex="1" parent="1">
          <mxGeometry x="-550" y="-690" width="650" height="58" as="geometry" />
        </mxCell>
        <mxCell id="9zleQhWhxqsWHkxX2myg-4" value="" style="line;strokeWidth=1;fillColor=none;align=left;verticalAlign=middle;spacingTop=-1;spacingLeft=3;spacingRight=3;rotatable=0;labelPosition=right;points=[];portConstraint=eastwest;strokeColor=inherit;fontFamily=Helvetica;fontSize=11;fontColor=default;labelBackgroundColor=default;" vertex="1" parent="9zleQhWhxqsWHkxX2myg-3">
          <mxGeometry y="50" width="650" height="8" as="geometry" />
        </mxCell>
        <mxCell id="9zleQhWhxqsWHkxX2myg-22" style="edgeStyle=orthogonalEdgeStyle;rounded=0;orthogonalLoop=1;jettySize=auto;html=1;exitX=0.25;exitY=1;exitDx=0;exitDy=0;strokeWidth=1;endSize=25;" edge="1" parent="1" source="9zleQhWhxqsWHkxX2myg-5" target="Xty3VMYmcu-zJbbGr5Q_-133">
          <mxGeometry relative="1" as="geometry" />
        </mxCell>
        <mxCell id="9zleQhWhxqsWHkxX2myg-5" value="&lt;font style=&quot;font-size: 30px;&quot;&gt;&lt;span style=&quot;font-style: normal;&quot;&gt;LanguageModelRefactorHandler&lt;/span&gt;&lt;/font&gt;" style="swimlane;fontStyle=3;align=center;verticalAlign=top;childLayout=stackLayout;horizontal=1;startSize=50;horizontalStack=0;resizeParent=1;resizeParentMax=0;resizeLast=0;collapsible=1;marginBottom=0;whiteSpace=wrap;html=1;fontFamily=Helvetica;fontSize=11;fontColor=default;labelBackgroundColor=default;" vertex="1" parent="1">
          <mxGeometry x="130" y="-690" width="650" height="58" as="geometry" />
        </mxCell>
        <mxCell id="9zleQhWhxqsWHkxX2myg-6" value="" style="line;strokeWidth=1;fillColor=none;align=left;verticalAlign=middle;spacingTop=-1;spacingLeft=3;spacingRight=3;rotatable=0;labelPosition=right;points=[];portConstraint=eastwest;strokeColor=inherit;fontFamily=Helvetica;fontSize=11;fontColor=default;labelBackgroundColor=default;" vertex="1" parent="9zleQhWhxqsWHkxX2myg-5">
          <mxGeometry y="50" width="650" height="8" as="geometry" />
        </mxCell>
        <mxCell id="9zleQhWhxqsWHkxX2myg-8" style="edgeStyle=orthogonalEdgeStyle;rounded=0;orthogonalLoop=1;jettySize=auto;html=1;exitX=0.75;exitY=0;exitDx=0;exitDy=0;entryX=0.082;entryY=1;entryDx=0;entryDy=0;entryPerimeter=0;endArrow=block;endFill=0;jumpSize=19;endSize=25;" edge="1" parent="1" source="9zleQhWhxqsWHkxX2myg-1" target="Xty3VMYmcu-zJbbGr5Q_-143">
          <mxGeometry relative="1" as="geometry" />
        </mxCell>
        <mxCell id="9zleQhWhxqsWHkxX2myg-10" style="edgeStyle=orthogonalEdgeStyle;rounded=0;orthogonalLoop=1;jettySize=auto;html=1;exitX=0.25;exitY=0;exitDx=0;exitDy=0;entryX=0.694;entryY=1;entryDx=0;entryDy=0;entryPerimeter=0;endArrow=block;endFill=0;endSize=25;" edge="1" parent="1" source="9zleQhWhxqsWHkxX2myg-3" target="Xty3VMYmcu-zJbbGr5Q_-143">
          <mxGeometry relative="1" as="geometry" />
        </mxCell>
        <mxCell id="9zleQhWhxqsWHkxX2myg-11" style="edgeStyle=orthogonalEdgeStyle;rounded=0;orthogonalLoop=1;jettySize=auto;html=1;exitX=0.5;exitY=0;exitDx=0;exitDy=0;entryX=1;entryY=0.348;entryDx=0;entryDy=0;entryPerimeter=0;endArrow=block;endFill=0;endSize=25;" edge="1" parent="1" source="9zleQhWhxqsWHkxX2myg-5" target="Xty3VMYmcu-zJbbGr5Q_-143">
          <mxGeometry relative="1" as="geometry" />
        </mxCell>
        <mxCell id="9zleQhWhxqsWHkxX2myg-12" value="&lt;font style=&quot;font-size: 30px;&quot;&gt;&lt;span style=&quot;font-style: normal;&quot;&gt;ChatGPTInterface&lt;/span&gt;&lt;/font&gt;" style="swimlane;fontStyle=3;align=center;verticalAlign=top;childLayout=stackLayout;horizontal=1;startSize=50;horizontalStack=0;resizeParent=1;resizeParentMax=0;resizeLast=0;collapsible=1;marginBottom=0;whiteSpace=wrap;html=1;fontFamily=Helvetica;fontSize=11;fontColor=default;labelBackgroundColor=default;" vertex="1" parent="1">
          <mxGeometry x="-795" y="70" width="650" height="58" as="geometry" />
        </mxCell>
        <mxCell id="9zleQhWhxqsWHkxX2myg-13" value="" style="line;strokeWidth=1;fillColor=none;align=left;verticalAlign=middle;spacingTop=-1;spacingLeft=3;spacingRight=3;rotatable=0;labelPosition=right;points=[];portConstraint=eastwest;strokeColor=inherit;fontFamily=Helvetica;fontSize=11;fontColor=default;labelBackgroundColor=default;" vertex="1" parent="9zleQhWhxqsWHkxX2myg-12">
          <mxGeometry y="50" width="650" height="8" as="geometry" />
        </mxCell>
        <mxCell id="9zleQhWhxqsWHkxX2myg-15" style="edgeStyle=orthogonalEdgeStyle;rounded=0;orthogonalLoop=1;jettySize=auto;html=1;exitX=0.5;exitY=0;exitDx=0;exitDy=0;entryX=0.56;entryY=1;entryDx=0;entryDy=0;entryPerimeter=0;endArrow=block;endFill=0;endSize=25;" edge="1" parent="1" source="9zleQhWhxqsWHkxX2myg-12" target="Xty3VMYmcu-zJbbGr5Q_-132">
          <mxGeometry relative="1" as="geometry" />
        </mxCell>
        <mxCell id="9zleQhWhxqsWHkxX2myg-16" value="&lt;span style=&quot;font-size: 30px;&quot;&gt;LanguageModelTemplateResolver&lt;/span&gt;" style="swimlane;fontStyle=3;align=center;verticalAlign=top;childLayout=stackLayout;horizontal=1;startSize=50;horizontalStack=0;resizeParent=1;resizeParentMax=0;resizeLast=0;collapsible=1;marginBottom=0;whiteSpace=wrap;html=1;fontFamily=Helvetica;fontSize=11;fontColor=default;labelBackgroundColor=default;" vertex="1" parent="1">
          <mxGeometry x="220" y="-160" width="580" height="190" as="geometry" />
        </mxCell>
        <mxCell id="9zleQhWhxqsWHkxX2myg-17" value="" style="line;strokeWidth=1;fillColor=none;align=left;verticalAlign=middle;spacingTop=-1;spacingLeft=3;spacingRight=3;rotatable=0;labelPosition=right;points=[];portConstraint=eastwest;strokeColor=inherit;fontFamily=Helvetica;fontSize=11;fontColor=default;labelBackgroundColor=default;" vertex="1" parent="9zleQhWhxqsWHkxX2myg-16">
          <mxGeometry y="50" width="580" height="8" as="geometry" />
        </mxCell>
        <mxCell id="9zleQhWhxqsWHkxX2myg-18" value="&lt;span style=&quot;font-size: 30px;&quot;&gt;+ resolve(String)&lt;/span&gt;" style="text;strokeColor=none;fillColor=none;align=left;verticalAlign=top;spacingLeft=4;spacingRight=4;overflow=hidden;rotatable=0;points=[[0,0.5],[1,0.5]];portConstraint=eastwest;whiteSpace=wrap;html=1;fontFamily=Helvetica;fontSize=11;fontColor=default;labelBackgroundColor=default;" vertex="1" parent="9zleQhWhxqsWHkxX2myg-16">
          <mxGeometry y="58" width="580" height="132" as="geometry" />
        </mxCell>
        <mxCell id="9zleQhWhxqsWHkxX2myg-20" style="edgeStyle=orthogonalEdgeStyle;rounded=0;orthogonalLoop=1;jettySize=auto;html=1;endSize=25;" edge="1" parent="1" source="Xty3VMYmcu-zJbbGr5Q_-135" target="Xty3VMYmcu-zJbbGr5Q_-129">
          <mxGeometry relative="1" as="geometry" />
        </mxCell>
        <mxCell id="9zleQhWhxqsWHkxX2myg-21" style="edgeStyle=orthogonalEdgeStyle;rounded=0;orthogonalLoop=1;jettySize=auto;html=1;entryX=0.5;entryY=0;entryDx=0;entryDy=0;endSize=25;" edge="1" parent="1" source="Xty3VMYmcu-zJbbGr5Q_-135" target="9zleQhWhxqsWHkxX2myg-16">
          <mxGeometry relative="1" as="geometry" />
        </mxCell>
      </root>
    </mxGraphModel>
  </diagram>
</mxfile>
